<?xml version="1.0" encoding="us-ascii" standalone="no"?><svg xmlns="http://www.w3.org/2000/svg" xmlns:xlink="http://www.w3.org/1999/xlink" contentStyleType="text/css" height="513.6px" preserveAspectRatio="none" style="width:743px;height:513px;background:#FFFFFF;" version="1.1" viewBox="0 0 743 513" width="743.4px" zoomAndPan="magnify"><defs/><g><!--class node2--><g id="elem_node2"><rect codeLine="6" fill="#FFFFFF" height="67.2352" id="node2" rx="1.5" ry="1.5" style="stroke:#000000;stroke-width:0.6;" width="310.2" x="379.2" y="130.8"/><ellipse cx="484.35" cy="139.2" fill="#FFFFFF" rx="5.4" ry="5.4" style="stroke:#000000;stroke-width:0.6;"/><path d="M486.0094,140.1188 L487.4437,140.5688 Q487.1156,141.7594 486.3469,142.3406 Q485.5875,142.9219 484.4063,142.9219 Q482.9531,142.9219 482.0156,141.9281 Q481.0875,140.9344 481.0875,139.2094 Q481.0875,137.3906 482.025,136.3875 Q482.9625,135.375 484.5,135.375 Q485.8406,135.375 486.675,136.1625 Q487.1719,136.6313 487.425,137.5125 L485.9625,137.8594 Q485.8312,137.2875 485.4188,136.9594 Q485.0156,136.6313 484.425,136.6313 Q483.6094,136.6313 483.1031,137.2219 Q482.6063,137.8031 482.6063,139.1063 Q482.6063,140.4844 483.1031,141.075 Q483.6,141.6656 484.3969,141.6656 Q484.9875,141.6656 485.4094,141.2906 Q485.8312,140.9156 486.0094,140.1188 Z " fill="#000000"/><text fill="#000000" font-family="Verdana" font-size="8.4" lengthAdjust="spacing" textLength="95.4" x="494.85" y="142.5407">duty  /* &#1044;&#1077;&#1078;&#1091;&#1088;&#1089;&#1090;&#1074;&#1072; */</text><line style="stroke:#000000;stroke-width:0.6;" x1="379.8" x2="688.8" y1="147.6" y2="147.6"/><text fill="#000000" font-family="Verdana" font-size="8.4" lengthAdjust="spacing" textLength="294" x="382.8" y="158.4451">begin_date  /* &#1044;&#1072;&#1090;&#1072; &#1085;&#1072;&#1095;&#1072;&#1083;&#1072; &#1076;&#1077;&#1078;&#1091;&#1088;&#1089;&#1090;&#1074;&#1072; */: timestamp with time zone</text><text fill="#000000" font-family="Verdana" font-size="8.4" lengthAdjust="spacing" textLength="303" x="382.8" y="168.6539">end_date  /* &#1044;&#1072;&#1090;&#1072; &#1086;&#1082;&#1086;&#1085;&#1095;&#1072;&#1085;&#1080;&#1103; &#1076;&#1077;&#1078;&#1091;&#1088;&#1089;&#1090;&#1074;&#1072; */: timestamp with time zone</text><text fill="#000000" font-family="Verdana" font-size="8.4" lengthAdjust="spacing" textLength="196.2" x="382.8" y="178.8627">duty_object_id  /* &#1044;&#1077;&#1078;&#1091;&#1088;&#1085;&#1099;&#1081; &#1086;&#1073;&#1098;&#1077;&#1082;&#1090; */: uuid</text><text fill="#000000" font-family="Verdana" font-size="8.4" lengthAdjust="spacing" textLength="178.8" x="382.8" y="189.0715">id  /* &#1048;&#1076;&#1077;&#1085;&#1090;&#1080;&#1092;&#1080;&#1082;&#1072;&#1090;&#1086;&#1088; &#1076;&#1077;&#1078;&#1091;&#1088;&#1089;&#1090;&#1074;&#1072; */: uuid</text><line style="stroke:#000000;stroke-width:0.6;" x1="379.8" x2="688.8" y1="193.2352" y2="193.2352"/></g><!--class node1--><g id="elem_node1"><rect codeLine="12" fill="#FFFFFF" height="46.8176" id="node1" rx="1.5" ry="1.5" style="stroke:#000000;stroke-width:0.6;" width="206.4" x="431.1" y="234"/><ellipse cx="449.97" cy="242.4" fill="#FFFFFF" rx="5.4" ry="5.4" style="stroke:#000000;stroke-width:0.6;"/><path d="M451.6294,243.3188 L453.0638,243.7687 Q452.7356,244.9594 451.9669,245.5406 Q451.2075,246.1219 450.0263,246.1219 Q448.5731,246.1219 447.6356,245.1281 Q446.7075,244.1344 446.7075,242.4094 Q446.7075,240.5906 447.645,239.5875 Q448.5825,238.575 450.12,238.575 Q451.4606,238.575 452.295,239.3625 Q452.7919,239.8312 453.045,240.7125 L451.5825,241.0594 Q451.4513,240.4875 451.0388,240.1594 Q450.6356,239.8312 450.045,239.8312 Q449.2294,239.8312 448.7231,240.4219 Q448.2263,241.0031 448.2263,242.3062 Q448.2263,243.6844 448.7231,244.275 Q449.22,244.8656 450.0169,244.8656 Q450.6075,244.8656 451.0294,244.4906 Q451.4513,244.1156 451.6294,243.3188 Z " fill="#000000"/><text fill="#000000" font-family="Verdana" font-size="8.4" lengthAdjust="spacing" textLength="165" x="459.63" y="245.7407">duty_object  /* &#1044;&#1077;&#1078;&#1091;&#1088;&#1085;&#1099;&#1077; &#1086;&#1073;&#1098;&#1077;&#1082;&#1090;&#1099; */</text><line style="stroke:#000000;stroke-width:0.6;" x1="431.7" x2="636.9" y1="250.8" y2="250.8"/><text fill="#000000" font-family="Verdana" font-size="8.4" lengthAdjust="spacing" textLength="199.2" x="434.7" y="261.6451">vehicle_id  /* &#1058;&#1088;&#1072;&#1085;&#1089;&#1087;&#1086;&#1090;&#1088;&#1085;&#1086;&#1077; &#1089;&#1088;&#1077;&#1076;&#1089;&#1090;&#1074;&#1086; */: uuid</text><text fill="#000000" font-family="Verdana" font-size="8.4" lengthAdjust="spacing" textLength="31.8" x="434.7" y="271.8539">id: uuid</text><line style="stroke:#000000;stroke-width:0.6;" x1="431.7" x2="636.9" y1="276.0176" y2="276.0176"/></g><!--class node3--><g id="elem_node3"><rect codeLine="16" fill="#FFFFFF" height="77.4439" id="node3" rx="1.5" ry="1.5" style="stroke:#000000;stroke-width:0.6;" width="231.6" x="237.9" y="420"/><ellipse cx="248.94" cy="428.4" fill="#FFFFFF" rx="5.4" ry="5.4" style="stroke:#000000;stroke-width:0.6;"/><path d="M250.5994,429.3187 L252.0337,429.7688 Q251.7056,430.9594 250.9369,431.5406 Q250.1775,432.1219 248.9962,432.1219 Q247.5431,432.1219 246.6056,431.1281 Q245.6775,430.1344 245.6775,428.4094 Q245.6775,426.5906 246.615,425.5875 Q247.5525,424.575 249.09,424.575 Q250.4306,424.575 251.265,425.3625 Q251.7619,425.8313 252.015,426.7125 L250.5525,427.0594 Q250.4213,426.4875 250.0087,426.1594 Q249.6056,425.8313 249.015,425.8313 Q248.1994,425.8313 247.6931,426.4219 Q247.1962,427.0031 247.1962,428.3063 Q247.1962,429.6844 247.6931,430.275 Q248.19,430.8656 248.9869,430.8656 Q249.5775,430.8656 249.9994,430.4906 Q250.4213,430.1156 250.5994,429.3187 Z " fill="#000000"/><text fill="#000000" font-family="Verdana" font-size="8.4" lengthAdjust="spacing" textLength="207.6" x="256.86" y="431.7407">project  /* &#1055;&#1088;&#1086;&#1077;&#1082;&#1090;&#1099; &#1090;&#1088;&#1072;&#1085;&#1089;&#1087;&#1086;&#1088;&#1090;&#1085;&#1086;&#1075;&#1086; &#1089;&#1088;&#1077;&#1076;&#1089;&#1090;&#1074;&#1072; */</text><line style="stroke:#000000;stroke-width:0.6;" x1="238.5" x2="468.9" y1="436.8" y2="436.8"/><text fill="#000000" font-family="Verdana" font-size="8.4" lengthAdjust="spacing" textLength="191.4" x="241.5" y="447.6451">name  /* &#1053;&#1072;&#1080;&#1084;&#1077;&#1085;&#1086;&#1074;&#1072;&#1085;&#1080;&#1077; &#1087;&#1088;&#1086;&#1077;&#1082;&#1090;&#1072; */: varchar</text><text fill="#000000" font-family="Verdana" font-size="8.4" lengthAdjust="spacing" textLength="224.4" x="241.5" y="457.8539">parent_id  /* &#1056;&#1086;&#1076;&#1080;&#1090;&#1077;&#1083;&#1100;&#1089;&#1082;&#1072;&#1103; &#1079;&#1072;&#1087;&#1080;&#1089;&#1100; &#1087;&#1088;&#1086;&#1077;&#1082;&#1090;&#1072; */: uuid</text><text fill="#000000" font-family="Verdana" font-size="8.4" lengthAdjust="spacing" textLength="142.2" x="241.5" y="468.0627">code  /* &#1050;&#1086;&#1076; &#1087;&#1088;&#1086;&#1077;&#1082;&#1090;&#1072; */: varchar</text><text fill="#000000" font-family="Verdana" font-size="8.4" lengthAdjust="spacing" textLength="211.8" x="241.5" y="478.2715">project_type  /* &#1055;&#1086;&#1079;&#1080;&#1094;&#1080;&#1103; &#1074; &#1080;&#1077;&#1088;&#1072;&#1088;&#1093;&#1080;&#1080; */: varchar</text><text fill="#000000" font-family="Verdana" font-size="8.4" lengthAdjust="spacing" textLength="168" x="241.5" y="488.4803">id  /* &#1048;&#1076;&#1077;&#1085;&#1090;&#1080;&#1092;&#1080;&#1082;&#1072;&#1090;&#1086;&#1088; &#1087;&#1088;&#1086;&#1077;&#1082;&#1090;&#1072; */: uuid</text><line style="stroke:#000000;stroke-width:0.6;" x1="238.5" x2="468.9" y1="492.6439" y2="492.6439"/></g><!--class node4--><g id="elem_node4"><rect codeLine="23" fill="#FFFFFF" height="87.6527" id="node4" rx="1.5" ry="1.5" style="stroke:#000000;stroke-width:0.6;" width="409.8" x="329.4" y="7.2"/><ellipse cx="483.45" cy="15.6" fill="#FFFFFF" rx="5.4" ry="5.4" style="stroke:#000000;stroke-width:0.6;"/><path d="M485.1094,16.5188 L486.5438,16.9688 Q486.2156,18.1594 485.4469,18.7406 Q484.6875,19.3219 483.5062,19.3219 Q482.0531,19.3219 481.1156,18.3281 Q480.1875,17.3344 480.1875,15.6094 Q480.1875,13.7906 481.125,12.7875 Q482.0625,11.775 483.6,11.775 Q484.9406,11.775 485.775,12.5625 Q486.2719,13.0313 486.525,13.9125 L485.0625,14.2594 Q484.9313,13.6875 484.5187,13.3594 Q484.1156,13.0313 483.525,13.0313 Q482.7094,13.0313 482.2031,13.6219 Q481.7062,14.2031 481.7062,15.5063 Q481.7062,16.8844 482.2031,17.475 Q482.7,18.0656 483.4969,18.0656 Q484.0875,18.0656 484.5094,17.6906 Q484.9313,17.3156 485.1094,16.5188 Z " fill="#000000"/><text fill="#000000" font-family="Verdana" font-size="8.4" lengthAdjust="spacing" textLength="97.2" x="493.95" y="18.9407">route  /* &#1052;&#1072;&#1088;&#1096;&#1088;&#1091;&#1090;&#1099; */</text><line style="stroke:#000000;stroke-width:0.6;" x1="330" x2="738.6" y1="24" y2="24"/><text fill="#000000" font-family="Verdana" font-size="8.4" lengthAdjust="spacing" textLength="158.4" x="333" y="34.8451">length  /* &#1044;&#1083;&#1080;&#1085;&#1072; &#1084;&#1072;&#1088;&#1096;&#1088;&#1091;&#1090;&#1072; */: bigint</text><text fill="#000000" font-family="Verdana" font-size="8.4" lengthAdjust="spacing" textLength="402.6" x="333" y="45.0539">operating_full_resource  /* &#1053;&#1072;&#1088;&#1072;&#1073;&#1086;&#1090;&#1082;&#1072; &#1087;&#1086;&#1083;&#1085;&#1086;&#1075;&#1086; &#1090;&#1077;&#1093;&#1085;&#1080;&#1095;&#1077;&#1089;&#1082;&#1086;&#1075;&#1086; &#1088;&#1077;&#1089;&#1091;&#1088;&#1089;&#1072; &#1076;&#1074;&#1080;&#1075;&#1072;&#1090;&#1077;&#1083;&#1103;, &#1095; */: bigint</text><text fill="#000000" font-family="Verdana" font-size="8.4" lengthAdjust="spacing" textLength="350.4" x="333" y="55.2627">start_date  /* &#1044;&#1072;&#1090;&#1072; &#1085;&#1072;&#1095;&#1072;&#1083;&#1072; &#1087;&#1088;&#1086;&#1093;&#1086;&#1078;&#1076;&#1077;&#1085;&#1080;&#1103; &#1084;&#1072;&#1088;&#1096;&#1088;&#1091;&#1090;&#1072; */: timestamp with time zone</text><text fill="#000000" font-family="Verdana" font-size="8.4" lengthAdjust="spacing" textLength="361.8" x="333" y="65.4715">end_date  /* &#1044;&#1072;&#1090;&#1072; &#1086;&#1082;&#1086;&#1085;&#1095;&#1072;&#1085;&#1080;&#1103; &#1087;&#1088;&#1086;&#1093;&#1086;&#1078;&#1076;&#1077;&#1085;&#1080;&#1103; &#1084;&#1072;&#1088;&#1096;&#1088;&#1091;&#1090;&#1072; */: timestamp with time zone</text><text fill="#000000" font-family="Verdana" font-size="8.4" lengthAdjust="spacing" textLength="133.2" x="333" y="75.6803">duty_id  /* &#1044;&#1077;&#1078;&#1091;&#1088;&#1089;&#1090;&#1074;&#1086; */: uuid</text><text fill="#000000" font-family="Verdana" font-size="8.4" lengthAdjust="spacing" textLength="175.2" x="333" y="85.8891">id  /* &#1048;&#1076;&#1077;&#1085;&#1090;&#1080;&#1092;&#1080;&#1082;&#1072;&#1090;&#1086;&#1088; &#1084;&#1072;&#1088;&#1096;&#1088;&#1091;&#1090;&#1072; */: uuid</text><line style="stroke:#000000;stroke-width:0.6;" x1="330" x2="738.6" y1="90.0527" y2="90.0527"/></g><!--class node5--><g id="elem_node5"><rect codeLine="31" fill="#FFFFFF" height="67.2352" id="node5" rx="1.5" ry="1.5" style="stroke:#000000;stroke-width:0.6;" width="348" x="360.3" y="316.8"/><ellipse cx="452.85" cy="325.2" fill="#FFFFFF" rx="5.4" ry="5.4" style="stroke:#000000;stroke-width:0.6;"/><path d="M454.5094,326.1188 L455.9437,326.5687 Q455.6156,327.7594 454.8469,328.3406 Q454.0875,328.9219 452.9063,328.9219 Q451.4531,328.9219 450.5156,327.9281 Q449.5875,326.9344 449.5875,325.2094 Q449.5875,323.3906 450.525,322.3875 Q451.4625,321.375 453,321.375 Q454.3406,321.375 455.175,322.1625 Q455.6719,322.6312 455.925,323.5125 L454.4625,323.8594 Q454.3313,323.2875 453.9188,322.9594 Q453.5156,322.6312 452.925,322.6312 Q452.1094,322.6312 451.6031,323.2219 Q451.1063,323.8031 451.1063,325.1063 Q451.1063,326.4844 451.6031,327.075 Q452.1,327.6656 452.8969,327.6656 Q453.4875,327.6656 453.9094,327.2906 Q454.3313,326.9156 454.5094,326.1188 Z " fill="#000000"/><text fill="#000000" font-family="Verdana" font-size="8.4" lengthAdjust="spacing" textLength="158.4" x="463.35" y="328.5407">vehicle  /* &#1058;&#1088;&#1072;&#1085;&#1089;&#1087;&#1086;&#1088;&#1085;&#1099;&#1077; &#1089;&#1088;&#1077;&#1076;&#1089;&#1090;&#1074;&#1072; */</text><line style="stroke:#000000;stroke-width:0.6;" x1="360.9" x2="707.7" y1="333.6" y2="333.6"/><text fill="#000000" font-family="Verdana" font-size="8.4" lengthAdjust="spacing" textLength="264" x="363.9" y="344.4451">name  /* &#1053;&#1072;&#1080;&#1084;&#1077;&#1085;&#1086;&#1074;&#1072;&#1085;&#1080;&#1077; &#1090;&#1088;&#1072;&#1085;&#1089;&#1087;&#1086;&#1088;&#1090;&#1085;&#1086;&#1075;&#1086; &#1089;&#1088;&#1077;&#1076;&#1089;&#1090;&#1074;&#1072; */: varchar</text><text fill="#000000" font-family="Verdana" font-size="8.4" lengthAdjust="spacing" textLength="340.8" x="363.9" y="354.6539">start_service_date  /* &#1044;&#1072;&#1090;&#1072; &#1085;&#1072;&#1095;&#1072;&#1083;&#1072; &#1101;&#1082;&#1089;&#1087;&#1083;&#1091;&#1072;&#1090;&#1072;&#1094;&#1080;&#1080; */: timestamp with time zone</text><text fill="#000000" font-family="Verdana" font-size="8.4" lengthAdjust="spacing" textLength="238.2" x="363.9" y="364.8627">project_id  /* &#1055;&#1088;&#1086;&#1077;&#1082;&#1090; &#1090;&#1088;&#1072;&#1085;&#1089;&#1087;&#1086;&#1088;&#1090;&#1085;&#1086;&#1075;&#1086; &#1089;&#1088;&#1077;&#1076;&#1089;&#1090;&#1074;&#1072; */: uuid</text><text fill="#000000" font-family="Verdana" font-size="8.4" lengthAdjust="spacing" textLength="240.6" x="363.9" y="375.0715">id  /* &#1048;&#1076;&#1077;&#1085;&#1090;&#1080;&#1092;&#1080;&#1082;&#1072;&#1090;&#1086;&#1088; &#1090;&#1088;&#1072;&#1085;&#1089;&#1087;&#1086;&#1088;&#1090;&#1085;&#1086;&#1075;&#1086; &#1089;&#1088;&#1077;&#1076;&#1089;&#1090;&#1074;&#1072; */: uuid</text><line style="stroke:#000000;stroke-width:0.6;" x1="360.9" x2="707.7" y1="379.2352" y2="379.2352"/></g><!--class node0--><g id="elem_node0"><rect codeLine="37" fill="#FFFFFF" height="67.2352" id="node0" rx="1.5" ry="1.5" style="stroke:#000000;stroke-width:0.6;" width="331.8" x="7.2" y="316.8"/><ellipse cx="73.35" cy="325.2" fill="#FFFFFF" rx="5.4" ry="5.4" style="stroke:#000000;stroke-width:0.6;"/><path d="M75.0094,326.1188 L76.4438,326.5687 Q76.1156,327.7594 75.3469,328.3406 Q74.5875,328.9219 73.4063,328.9219 Q71.9531,328.9219 71.0156,327.9281 Q70.0875,326.9344 70.0875,325.2094 Q70.0875,323.3906 71.025,322.3875 Q71.9625,321.375 73.5,321.375 Q74.8406,321.375 75.675,322.1625 Q76.1719,322.6312 76.425,323.5125 L74.9625,323.8594 Q74.8313,323.2875 74.4188,322.9594 Q74.0156,322.6312 73.425,322.6312 Q72.6094,322.6312 72.1031,323.2219 Q71.6063,323.8031 71.6063,325.1063 Q71.6063,326.4844 72.1031,327.075 Q72.6,327.6656 73.3969,327.6656 Q73.9875,327.6656 74.4094,327.2906 Q74.8313,326.9156 75.0094,326.1188 Z " fill="#000000"/><text fill="#000000" font-family="Verdana" font-size="8.4" lengthAdjust="spacing" textLength="195" x="83.85" y="328.5407">vehicle_tth  /* &#1058;&#1058;&#1061; &#1090;&#1088;&#1072;&#1085;&#1089;&#1087;&#1086;&#1088;&#1090;&#1085;&#1099;&#1093; &#1089;&#1088;&#1077;&#1076;&#1089;&#1090;&#1074; */</text><line style="stroke:#000000;stroke-width:0.6;" x1="7.8" x2="338.4" y1="333.6" y2="333.6"/><text fill="#000000" font-family="Verdana" font-size="8.4" lengthAdjust="spacing" textLength="238.2" x="10.8" y="344.4451">project_id  /* &#1055;&#1088;&#1086;&#1077;&#1082;&#1090; &#1090;&#1088;&#1072;&#1085;&#1089;&#1087;&#1086;&#1088;&#1090;&#1085;&#1086;&#1075;&#1086; &#1089;&#1088;&#1077;&#1076;&#1089;&#1090;&#1074;&#1072; */: uuid</text><text fill="#000000" font-family="Verdana" font-size="8.4" lengthAdjust="spacing" textLength="324.6" x="10.8" y="354.6539">engine_resource  /* &#1059;&#1089;&#1090;&#1072;&#1085;&#1086;&#1074;&#1083;&#1077;&#1085;&#1085;&#1099;&#1081; &#1087;&#1086;&#1083;&#1085;&#1099;&#1081; &#1088;&#1077;&#1089;&#1091;&#1088;&#1089; &#1076;&#1074;&#1080;&#1075;&#1072;&#1090;&#1077;&#1083;&#1103;, &#1095; */: bigint</text><text fill="#000000" font-family="Verdana" font-size="8.4" lengthAdjust="spacing" textLength="226.2" x="10.8" y="364.8627">annual_passage_rate  /* &#1043;&#1086;&#1076;&#1086;&#1074;&#1072;&#1103; &#1085;&#1086;&#1088;&#1084;&#1072;, &#1095; */: bigint</text><text fill="#000000" font-family="Verdana" font-size="8.4" lengthAdjust="spacing" textLength="192" x="10.8" y="375.0715">id  /* &#1048;&#1076;&#1077;&#1085;&#1090;&#1080;&#1092;&#1080;&#1082;&#1072;&#1090;&#1086;&#1088; &#1058;&#1058;&#1061; &#1089;&#1088;&#1077;&#1076;&#1089;&#1090;&#1074;&#1072; */: uuid</text><line style="stroke:#000000;stroke-width:0.6;" x1="7.8" x2="338.4" y1="379.2352" y2="379.2352"/></g><!--link node2 to node1--><g id="link_node2_node1"><path codeLine="44" d="M534.3,198.24 C534.3,198.24 534.3,221.916 534.3,221.916 " fill="none" id="node2-to-node1" style="stroke:#595959;stroke-width:0.6;"/><polygon fill="none" points="538.5,221.916,534.3,233.916,530.1,221.916,538.5,221.916" style="stroke:#595959;stroke-width:0.6;"/><text fill="#000000" font-family="Verdana" font-size="7.8" lengthAdjust="spacing" textLength="69.6" x="464.1" y="208.3199">duty_object_id:id</text></g><!--link node1 to node5--><g id="link_node1_node5"><path codeLine="45" d="M534.3,280.866 C534.3,280.866 534.3,304.752 534.3,304.752 " fill="none" id="node1-to-node5" style="stroke:#595959;stroke-width:0.6;"/><polygon fill="none" points="538.5,304.752,534.3,316.752,530.1,304.752,538.5,304.752" style="stroke:#595959;stroke-width:0.6;"/><text fill="#000000" font-family="Verdana" font-size="7.8" lengthAdjust="spacing" textLength="49.2" x="484.5" y="291.0539">vehicle_id:id</text></g><!--link node3 to node3--><g id="link_node3_node3"><path codeLine="46" d="M271.602,419.94 C271.602,409.974 271.602,402 271.602,402 C271.602,402 122.55,402 122.55,402 C122.55,402 122.55,508.2 122.55,508.2 C122.55,508.2 353.7,508.2 353.7,508.2 C353.7,508.2 353.7,507.126 353.7,507.126 " fill="none" id="node3-to-node3" style="stroke:#595959;stroke-width:0.6;"/><polygon fill="none" points="349.5,509.46,353.7,497.46,357.9,509.46,349.5,509.46" style="stroke:#595959;stroke-width:0.6;"/><text fill="#000000" font-family="Verdana" font-size="7.8" lengthAdjust="spacing" textLength="47.4" x="71.55" y="482.9579">parent_id:id</text></g><!--link node4 to node2--><g id="link_node4_node2"><path codeLine="47" d="M534.3,94.842 C534.3,94.842 534.3,118.698 534.3,118.698 " fill="none" id="node4-to-node2" style="stroke:#595959;stroke-width:0.6;"/><polygon fill="none" points="538.5,118.698,534.3,130.698,530.1,118.698,538.5,118.698" style="stroke:#595959;stroke-width:0.6;"/><text fill="#000000" font-family="Verdana" font-size="7.8" lengthAdjust="spacing" textLength="39.6" x="494.1" y="105.0119">duty_id:id</text></g><!--link node5 to node3--><g id="link_node5_node3"><path codeLine="48" d="M414.9,384.072 C414.9,384.072 414.9,407.934 414.9,407.934 " fill="none" id="node5-to-node3" style="stroke:#595959;stroke-width:0.6;"/><polygon fill="none" points="419.1,407.934,414.9,419.934,410.7,407.934,419.1,407.934" style="stroke:#595959;stroke-width:0.6;"/><text fill="#000000" font-family="Verdana" font-size="7.8" lengthAdjust="spacing" textLength="49.8" x="364.5" y="394.2479">project_id:id</text></g><!--link node0 to node3--><g id="link_node0_node3"><path codeLine="49" d="M305.298,384.072 C305.298,384.072 305.298,407.934 305.298,407.934 " fill="none" id="node0-to-node3" style="stroke:#595959;stroke-width:0.6;"/><polygon fill="none" points="309.498,407.934,305.298,419.934,301.098,407.934,309.498,407.934" style="stroke:#595959;stroke-width:0.6;"/><text fill="#000000" font-family="Verdana" font-size="7.8" lengthAdjust="spacing" textLength="49.8" x="254.898" y="394.2479">project_id:id</text></g><!--SRC=[jLRRRjD047tFLopbhMhLqZOFz5SGM1jxIHOSsxBNHGKX9IcbY1Rr0Hug108LyPwcjz0qwI_i_X4pwsjSfqbBKMJ9ZdVEd9qpPzOFH8Cr6V5iofsAS3qYN59pXN2RnE8-CmLtdKhmaZiUzMcJsDnXOjDZnFL5mwrKJ9i60N5SYwqG6f0vAnIRX2pD4_b5diepjQLQggqwiYUxP7vfZhof449ghCuTmwA29KkxiAHBv11kTcHN3l3Xf0HWdGZUP86WJO-yugAX7ybhrs68onoh37KaB-0QQkIXxAlzks3ZnWotzW8gOd2hi4K0tvL_CDEH-WX_NgYE1Wn3Rc5m4d2W4myXPL-zattWXHH7gZM9aGPucwloexJACPao9gTZJDHkLlaDrk2cpT8T748454MrvHNGw60yX9uI8D62w9EOpAYmcn9YgvgOvxiPgH-0CKevQFGiLmk0CTSnW1UovJh5eSrOpUyGsvUNM3w8waLIuawliYnnqJQeRpQeZ_7GjCp91Fi9Aq-WzXrOFr1xG0KLW7uu1xmhUD5MUsM8oSvDs6Y4z1MHfYMFYc5elqGLWSNdaEPzr8KzWbl0ia0vjk6-NuIOeN4ciCrhiwQryTqmiSOtdV43N5lZ_M4pfmwT7_VK038DqK6N-VLnbXe74miCSZtcKy6Tkl4yj6t3Pu4R-cQcczRz2FiBUHEK7w1JyK4Cs3mQSmVksjgi-aKB7oDBHFEW1toEzSvHllq5edOALC2zlfWwMNJ98ET8daLrZUGes-NzZ9jxIgXjVstuJF3erCOfotwjTQgwTUAnKJOpaedpBnw-tMWOCqWaUC3y3MwoQSAhJ-0Ip35GMz5xT6BikfiAdpWvgMfkijsQ_EmAtGavBzvoNZn39CO-XD_lKdIrgxOBs9cE_wC8C6xWWw8mCdxffTsuIGQwNU83DXuT-Y4_7sQR3jHnGceR7jI7rY5hsYsVzRcWMn9zETHz3VuemPZ1M75zRv2e4dqmaSKd3wkFyRUWlx-UBZuZyIc_FdR8GytNkJLNYTvD3AjYM7R4fo6haqDMCIGz9TE8jSaHAocttFhgj0nfxwGXoxSA-Gi0]--></g></svg>