<?xml version="1.0" encoding="us-ascii" standalone="no"?><svg xmlns="http://www.w3.org/2000/svg" xmlns:xlink="http://www.w3.org/1999/xlink" contentStyleType="text/css" height="633px" preserveAspectRatio="none" style="width:307px;height:633px;background:#FFFFFF;" version="1.1" viewBox="0 0 307 633" width="307.2px" zoomAndPan="magnify"><defs/><g><!--class Duty--><g id="elem_Duty"><rect codeLine="6" fill="#FFFFFF" height="67.2352" id="Duty" rx="1.5" ry="1.5" style="stroke:#000000;stroke-width:0.6;" width="124.2" x="165" y="130.8"/><ellipse cx="214.65" cy="139.2" fill="#FFFFFF" rx="5.4" ry="5.4" style="stroke:#000000;stroke-width:0.6;"/><path d="M216.3094,140.1188 L217.7438,140.5688 Q217.4156,141.7594 216.6469,142.3406 Q215.8875,142.9219 214.7062,142.9219 Q213.2531,142.9219 212.3156,141.9281 Q211.3875,140.9344 211.3875,139.2094 Q211.3875,137.3906 212.325,136.3875 Q213.2625,135.375 214.8,135.375 Q216.1406,135.375 216.975,136.1625 Q217.4719,136.6313 217.725,137.5125 L216.2625,137.8594 Q216.1313,137.2875 215.7188,136.9594 Q215.3156,136.6313 214.725,136.6313 Q213.9094,136.6313 213.4031,137.2219 Q212.9063,137.8031 212.9063,139.1063 Q212.9063,140.4844 213.4031,141.075 Q213.9,141.6656 214.6969,141.6656 Q215.2875,141.6656 215.7094,141.2906 Q216.1313,140.9156 216.3094,140.1188 Z " fill="#000000"/><text fill="#000000" font-family="Verdana" font-size="8.4" lengthAdjust="spacing" textLength="20.4" x="225.15" y="142.5407">Duty</text><line style="stroke:#000000;stroke-width:0.6;" x1="165.6" x2="288.6" y1="147.6" y2="147.6"/><rect fill="none" height="3.6" style="stroke:#000000;stroke-width:0.6;" width="3.6" x="169.8" y="154.2044"/><text fill="#000000" font-family="Verdana" font-size="8.4" lengthAdjust="spacing" textLength="101.4" x="175.8" y="158.4451">dutyObject: DutyObject</text><rect fill="none" height="3.6" style="stroke:#000000;stroke-width:0.6;" width="3.6" x="169.8" y="164.4132"/><text fill="#000000" font-family="Verdana" font-size="8.4" lengthAdjust="spacing" textLength="35.4" x="175.8" y="168.6539">id: UUID</text><rect fill="none" height="3.6" style="stroke:#000000;stroke-width:0.6;" width="3.6" x="169.8" y="174.622"/><text fill="#000000" font-family="Verdana" font-size="8.4" lengthAdjust="spacing" textLength="109.8" x="175.8" y="178.8627">beginDate: LocalDateTime</text><rect fill="none" height="3.6" style="stroke:#000000;stroke-width:0.6;" width="3.6" x="169.8" y="184.8308"/><text fill="#000000" font-family="Verdana" font-size="8.4" lengthAdjust="spacing" textLength="102.6" x="175.8" y="189.0715">endDate: LocalDateTime</text><line style="stroke:#000000;stroke-width:0.6;" x1="165.6" x2="288.6" y1="193.2352" y2="193.2352"/></g><!--class DutyObject--><g id="elem_DutyObject"><rect codeLine="12" fill="#FFFFFF" height="46.8176" id="DutyObject" rx="1.5" ry="1.5" style="stroke:#000000;stroke-width:0.6;" width="77.4" x="188.4" y="234"/><ellipse cx="201.87" cy="242.4" fill="#FFFFFF" rx="5.4" ry="5.4" style="stroke:#000000;stroke-width:0.6;"/><path d="M203.5294,243.3188 L204.9637,243.7687 Q204.6356,244.9594 203.8669,245.5406 Q203.1075,246.1219 201.9262,246.1219 Q200.4731,246.1219 199.5356,245.1281 Q198.6075,244.1344 198.6075,242.4094 Q198.6075,240.5906 199.545,239.5875 Q200.4825,238.575 202.02,238.575 Q203.3606,238.575 204.195,239.3625 Q204.6919,239.8312 204.945,240.7125 L203.4825,241.0594 Q203.3513,240.4875 202.9388,240.1594 Q202.5356,239.8312 201.945,239.8312 Q201.1294,239.8312 200.6231,240.4219 Q200.1263,241.0031 200.1263,242.3062 Q200.1263,243.6844 200.6231,244.275 Q201.12,244.8656 201.9169,244.8656 Q202.5075,244.8656 202.9294,244.4906 Q203.3513,244.1156 203.5294,243.3188 Z " fill="#000000"/><text fill="#000000" font-family="Verdana" font-size="8.4" lengthAdjust="spacing" textLength="48" x="210.33" y="245.7407">DutyObject</text><line style="stroke:#000000;stroke-width:0.6;" x1="189" x2="265.2" y1="250.8" y2="250.8"/><rect fill="none" height="3.6" style="stroke:#000000;stroke-width:0.6;" width="3.6" x="193.2" y="257.4044"/><text fill="#000000" font-family="Verdana" font-size="8.4" lengthAdjust="spacing" textLength="63" x="199.2" y="261.6451">vehicle: Vehicle</text><rect fill="none" height="3.6" style="stroke:#000000;stroke-width:0.6;" width="3.6" x="193.2" y="267.6132"/><text fill="#000000" font-family="Verdana" font-size="8.4" lengthAdjust="spacing" textLength="35.4" x="199.2" y="271.8539">id: UUID</text><line style="stroke:#000000;stroke-width:0.6;" x1="189" x2="265.2" y1="276.0176" y2="276.0176"/></g><!--class Project--><g id="elem_Project"><rect codeLine="16" fill="#FFFFFF" height="77.4439" id="Project" rx="1.5" ry="1.5" style="stroke:#000000;stroke-width:0.6;" width="163.8" x="66" y="420"/><ellipse cx="130.95" cy="428.4" fill="#FFFFFF" rx="5.4" ry="5.4" style="stroke:#000000;stroke-width:0.6;"/><path d="M132.6094,429.3187 L134.0438,429.7688 Q133.7156,430.9594 132.9469,431.5406 Q132.1875,432.1219 131.0063,432.1219 Q129.5531,432.1219 128.6156,431.1281 Q127.6875,430.1344 127.6875,428.4094 Q127.6875,426.5906 128.625,425.5875 Q129.5625,424.575 131.1,424.575 Q132.4406,424.575 133.275,425.3625 Q133.7719,425.8313 134.025,426.7125 L132.5625,427.0594 Q132.4313,426.4875 132.0187,426.1594 Q131.6156,425.8313 131.025,425.8313 Q130.2094,425.8313 129.7031,426.4219 Q129.2062,427.0031 129.2062,428.3063 Q129.2062,429.6844 129.7031,430.275 Q130.2,430.8656 130.9969,430.8656 Q131.5875,430.8656 132.0094,430.4906 Q132.4313,430.1156 132.6094,429.3187 Z " fill="#000000"/><text fill="#000000" font-family="Verdana" font-size="8.4" lengthAdjust="spacing" textLength="29.4" x="141.45" y="431.7407">Project</text><line style="stroke:#000000;stroke-width:0.6;" x1="66.6" x2="229.2" y1="436.8" y2="436.8"/><rect fill="none" height="3.6" style="stroke:#000000;stroke-width:0.6;" width="3.6" x="70.8" y="443.4044"/><text fill="#000000" font-family="Verdana" font-size="8.4" lengthAdjust="spacing" textLength="63.6" x="76.8" y="447.6451">parent: Project</text><rect fill="none" height="3.6" style="stroke:#000000;stroke-width:0.6;" width="3.6" x="70.8" y="453.6132"/><text fill="#000000" font-family="Verdana" font-size="8.4" lengthAdjust="spacing" textLength="52.2" x="76.8" y="457.8539">code: String</text><rect fill="none" height="3.6" style="stroke:#000000;stroke-width:0.6;" width="3.6" x="70.8" y="463.822"/><text fill="#000000" font-family="Verdana" font-size="8.4" lengthAdjust="spacing" textLength="55.2" x="76.8" y="468.0627">name: String</text><rect fill="none" height="3.6" style="stroke:#000000;stroke-width:0.6;" width="3.6" x="70.8" y="474.0308"/><text fill="#000000" font-family="Verdana" font-size="8.4" lengthAdjust="spacing" textLength="35.4" x="76.8" y="478.2715">id: UUID</text><rect fill="none" height="3.6" style="stroke:#000000;stroke-width:0.6;" width="3.6" x="70.8" y="484.2396"/><text fill="#000000" font-family="Verdana" font-size="8.4" lengthAdjust="spacing" textLength="149.4" x="76.8" y="488.4803">projectType: ShipProjectTypeEnum</text><line style="stroke:#000000;stroke-width:0.6;" x1="66.6" x2="229.2" y1="492.6439" y2="492.6439"/></g><!--class Route--><g id="elem_Route"><rect codeLine="23" fill="#FFFFFF" height="87.6527" id="Route" rx="1.5" ry="1.5" style="stroke:#000000;stroke-width:0.6;" width="135" x="159.6" y="7.2"/><ellipse cx="212.25" cy="15.6" fill="#FFFFFF" rx="5.4" ry="5.4" style="stroke:#000000;stroke-width:0.6;"/><path d="M213.9094,16.5188 L215.3438,16.9688 Q215.0156,18.1594 214.2469,18.7406 Q213.4875,19.3219 212.3063,19.3219 Q210.8531,19.3219 209.9156,18.3281 Q208.9875,17.3344 208.9875,15.6094 Q208.9875,13.7906 209.925,12.7875 Q210.8625,11.775 212.4,11.775 Q213.7406,11.775 214.575,12.5625 Q215.0719,13.0313 215.325,13.9125 L213.8625,14.2594 Q213.7313,13.6875 213.3188,13.3594 Q212.9156,13.0313 212.325,13.0313 Q211.5094,13.0313 211.0031,13.6219 Q210.5063,14.2031 210.5063,15.5063 Q210.5063,16.8844 211.0031,17.475 Q211.5,18.0656 212.2969,18.0656 Q212.8875,18.0656 213.3094,17.6906 Q213.7313,17.3156 213.9094,16.5188 Z " fill="#000000"/><text fill="#000000" font-family="Verdana" font-size="8.4" lengthAdjust="spacing" textLength="25.2" x="222.75" y="18.9407">Route</text><line style="stroke:#000000;stroke-width:0.6;" x1="160.2" x2="294" y1="24" y2="24"/><rect fill="none" height="3.6" style="stroke:#000000;stroke-width:0.6;" width="3.6" x="164.4" y="30.6044"/><text fill="#000000" font-family="Verdana" font-size="8.4" lengthAdjust="spacing" textLength="54" x="170.4" y="34.8451">length: Long</text><rect fill="none" height="3.6" style="stroke:#000000;stroke-width:0.6;" width="3.6" x="164.4" y="40.8132"/><text fill="#000000" font-family="Verdana" font-size="8.4" lengthAdjust="spacing" textLength="107.4" x="170.4" y="45.0539">startDate: LocalDateTime</text><rect fill="none" height="3.6" style="stroke:#000000;stroke-width:0.6;" width="3.6" x="164.4" y="51.022"/><text fill="#000000" font-family="Verdana" font-size="8.4" lengthAdjust="spacing" textLength="120.6" x="170.4" y="55.2627">operatingFullResource: Long</text><rect fill="none" height="3.6" style="stroke:#000000;stroke-width:0.6;" width="3.6" x="164.4" y="61.2308"/><text fill="#000000" font-family="Verdana" font-size="8.4" lengthAdjust="spacing" textLength="102.6" x="170.4" y="65.4715">endDate: LocalDateTime</text><rect fill="none" height="3.6" style="stroke:#000000;stroke-width:0.6;" width="3.6" x="164.4" y="71.4396"/><text fill="#000000" font-family="Verdana" font-size="8.4" lengthAdjust="spacing" textLength="46.2" x="170.4" y="75.6803">duty: Duty</text><rect fill="none" height="3.6" style="stroke:#000000;stroke-width:0.6;" width="3.6" x="164.4" y="81.6483"/><text fill="#000000" font-family="Verdana" font-size="8.4" lengthAdjust="spacing" textLength="35.4" x="170.4" y="85.8891">id: UUID</text><line style="stroke:#000000;stroke-width:0.6;" x1="160.2" x2="294" y1="90.0527" y2="90.0527"/></g><!--class ShipProjectTypeEnum--><g id="elem_ShipProjectTypeEnum"><rect codeLine="31" fill="#FFFFFF" height="95.8119" id="ShipProjectTypeEnum" rx="1.5" ry="1.5" style="stroke:#000000;stroke-width:0.6;" width="109.2" x="93.3" y="533.4"/><ellipse cx="101.1" cy="545.8796" fill="#FFFFFF" rx="5.4" ry="5.4" style="stroke:#000000;stroke-width:0.6;"/><path d="M98.5406,549.4796 L98.5406,542.1765 L103.9594,542.1765 L103.9594,543.414 L100.0125,543.414 L100.0125,545.0358 L103.6781,545.0358 L103.6781,546.264 L100.0125,546.264 L100.0125,548.2515 L104.1,548.2515 L104.1,549.4796 L98.5406,549.4796 Z " fill="#000000"/><text fill="#000000" font-family="Verdana" font-size="7.2" font-style="italic" lengthAdjust="spacing" textLength="55.8" x="126.6" y="543.6387">&#171;enumeration&#187;</text><text fill="#000000" font-family="Verdana" font-size="8.4" lengthAdjust="spacing" textLength="92.4" x="108.3" y="553.5955">ShipProjectTypeEnum</text><line style="stroke:#000000;stroke-width:0.6;" x1="93.9" x2="201.9" y1="558.3592" y2="558.3592"/><ellipse cx="99.9" cy="566.7636" fill="none" rx="1.8" ry="1.8" style="stroke:#000000;stroke-width:0.6;"/><text fill="#000000" font-family="Verdana" font-size="8.4" lengthAdjust="spacing" textLength="33.6" x="104.1" y="569.2043">GROUP:</text><ellipse cx="99.9" cy="576.9724" fill="none" rx="1.8" ry="1.8" style="stroke:#000000;stroke-width:0.6;"/><text fill="#000000" font-family="Verdana" font-size="8.4" lengthAdjust="spacing" textLength="41.4" x="104.1" y="579.4131">PROJECT:</text><ellipse cx="99.9" cy="587.1812" fill="none" rx="1.8" ry="1.8" style="stroke:#000000;stroke-width:0.6;"/><text fill="#000000" font-family="Verdana" font-size="8.4" lengthAdjust="spacing" textLength="32.4" x="104.1" y="589.6219">CLASS:</text><ellipse cx="99.9" cy="597.3899" fill="none" rx="1.8" ry="1.8" style="stroke:#000000;stroke-width:0.6;"/><text fill="#000000" font-family="Verdana" font-size="8.4" lengthAdjust="spacing" textLength="55.8" x="104.1" y="599.8307">SUB_CLASS:</text><ellipse cx="99.9" cy="607.5987" fill="none" rx="1.8" ry="1.8" style="stroke:#000000;stroke-width:0.6;"/><text fill="#000000" font-family="Verdana" font-size="8.4" lengthAdjust="spacing" textLength="79.2" x="104.1" y="610.0395">SUB_SUB_CLASS:</text><rect fill="none" height="3.6" style="stroke:#000000;stroke-width:0.6;" width="3.6" x="98.1" y="616.0075"/><text fill="#000000" font-family="Verdana" font-size="8.4" lengthAdjust="spacing" textLength="55.2" x="104.1" y="620.2482">name: String</text><line style="stroke:#000000;stroke-width:0.6;" x1="93.9" x2="201.9" y1="624.4119" y2="624.4119"/></g><!--class Vehicle--><g id="elem_Vehicle"><rect codeLine="39" fill="#FFFFFF" height="67.2352" id="Vehicle" rx="1.5" ry="1.5" style="stroke:#000000;stroke-width:0.6;" width="151.8" x="151.2" y="316.8"/><ellipse cx="210.45" cy="325.2" fill="#FFFFFF" rx="5.4" ry="5.4" style="stroke:#000000;stroke-width:0.6;"/><path d="M212.1094,326.1188 L213.5438,326.5687 Q213.2156,327.7594 212.4469,328.3406 Q211.6875,328.9219 210.5063,328.9219 Q209.0531,328.9219 208.1156,327.9281 Q207.1875,326.9344 207.1875,325.2094 Q207.1875,323.3906 208.125,322.3875 Q209.0625,321.375 210.6,321.375 Q211.9406,321.375 212.775,322.1625 Q213.2719,322.6312 213.525,323.5125 L212.0625,323.8594 Q211.9313,323.2875 211.5187,322.9594 Q211.1156,322.6312 210.525,322.6312 Q209.7094,322.6312 209.2031,323.2219 Q208.7062,323.8031 208.7062,325.1063 Q208.7062,326.4844 209.2031,327.075 Q209.7,327.6656 210.4969,327.6656 Q211.0875,327.6656 211.5094,327.2906 Q211.9313,326.9156 212.1094,326.1188 Z " fill="#000000"/><text fill="#000000" font-family="Verdana" font-size="8.4" lengthAdjust="spacing" textLength="28.8" x="220.95" y="328.5407">Vehicle</text><line style="stroke:#000000;stroke-width:0.6;" x1="151.8" x2="302.4" y1="333.6" y2="333.6"/><rect fill="none" height="3.6" style="stroke:#000000;stroke-width:0.6;" width="3.6" x="156" y="340.2044"/><text fill="#000000" font-family="Verdana" font-size="8.4" lengthAdjust="spacing" textLength="66" x="162" y="344.4451">project: Project</text><rect fill="none" height="3.6" style="stroke:#000000;stroke-width:0.6;" width="3.6" x="156" y="350.4132"/><text fill="#000000" font-family="Verdana" font-size="8.4" lengthAdjust="spacing" textLength="35.4" x="162" y="354.6539">id: UUID</text><polygon fill="none" points="157.8,359.422,160.2,361.822,157.8,364.222,155.4,361.822" style="stroke:#000000;stroke-width:0.6;"/><text fill="#000000" font-family="Verdana" font-size="8.4" lengthAdjust="spacing" textLength="55.2" x="162" y="364.8627">name: String</text><rect fill="none" height="3.6" style="stroke:#000000;stroke-width:0.6;" width="3.6" x="156" y="370.8308"/><text fill="#000000" font-family="Verdana" font-size="8.4" lengthAdjust="spacing" textLength="137.4" x="162" y="375.0715">startServiceDate: LocalDateTime</text><line style="stroke:#000000;stroke-width:0.6;" x1="151.8" x2="302.4" y1="379.2352" y2="379.2352"/></g><!--class VehicleTth--><g id="elem_VehicleTth"><rect codeLine="45" fill="#FFFFFF" height="67.2352" id="VehicleTth" rx="1.5" ry="1.5" style="stroke:#000000;stroke-width:0.6;" width="123" x="7.2" y="316.8"/><ellipse cx="44.85" cy="325.2" fill="#FFFFFF" rx="5.4" ry="5.4" style="stroke:#000000;stroke-width:0.6;"/><path d="M46.5094,326.1188 L47.9438,326.5687 Q47.6156,327.7594 46.8469,328.3406 Q46.0875,328.9219 44.9063,328.9219 Q43.4531,328.9219 42.5156,327.9281 Q41.5875,326.9344 41.5875,325.2094 Q41.5875,323.3906 42.525,322.3875 Q43.4625,321.375 45,321.375 Q46.3406,321.375 47.175,322.1625 Q47.6719,322.6312 47.925,323.5125 L46.4625,323.8594 Q46.3313,323.2875 45.9187,322.9594 Q45.5156,322.6312 44.925,322.6312 Q44.1094,322.6312 43.6031,323.2219 Q43.1062,323.8031 43.1062,325.1063 Q43.1062,326.4844 43.6031,327.075 Q44.1,327.6656 44.8969,327.6656 Q45.4875,327.6656 45.9094,327.2906 Q46.3313,326.9156 46.5094,326.1188 Z " fill="#000000"/><text fill="#000000" font-family="Verdana" font-size="8.4" lengthAdjust="spacing" textLength="43.2" x="55.35" y="328.5407">VehicleTth</text><line style="stroke:#000000;stroke-width:0.6;" x1="7.8" x2="129.6" y1="333.6" y2="333.6"/><rect fill="none" height="3.6" style="stroke:#000000;stroke-width:0.6;" width="3.6" x="12" y="340.2044"/><text fill="#000000" font-family="Verdana" font-size="8.4" lengthAdjust="spacing" textLength="35.4" x="18" y="344.4451">id: UUID</text><rect fill="none" height="3.6" style="stroke:#000000;stroke-width:0.6;" width="3.6" x="12" y="350.4132"/><text fill="#000000" font-family="Verdana" font-size="8.4" lengthAdjust="spacing" textLength="108.6" x="18" y="354.6539">annualPassageRate: Long</text><rect fill="none" height="3.6" style="stroke:#000000;stroke-width:0.6;" width="3.6" x="12" y="360.622"/><text fill="#000000" font-family="Verdana" font-size="8.4" lengthAdjust="spacing" textLength="66" x="18" y="364.8627">project: Project</text><rect fill="none" height="3.6" style="stroke:#000000;stroke-width:0.6;" width="3.6" x="12" y="370.8308"/><text fill="#000000" font-family="Verdana" font-size="8.4" lengthAdjust="spacing" textLength="94.2" x="18" y="375.0715">engineResource: Long</text><line style="stroke:#000000;stroke-width:0.6;" x1="7.8" x2="129.6" y1="379.2352" y2="379.2352"/></g><!--link Duty to DutyObject--><g id="link_Duty_DutyObject"><path codeLine="52" d="M227.1,206.04 C227.1,206.04 227.1,226.116 227.1,226.116 " fill="none" id="Duty-DutyObject" style="stroke:#595959;stroke-width:0.6;"/><polygon fill="#595959" points="227.1,198.24,224.7,201.84,227.1,205.44,229.5,201.84,227.1,198.24" style="stroke:#595959;stroke-width:0.6;"/><polygon fill="#595959" points="227.1,233.916,229.5,228.516,227.1,230.916,224.7,228.516,227.1,233.916" style="stroke:#595959;stroke-width:0.6;"/><line style="stroke:#595959;stroke-width:0.6;" x1="227.1" x2="227.1" y1="230.916" y2="226.116"/><text fill="#000000" font-family="Verdana" font-size="7.8" lengthAdjust="spacing" textLength="4.8" x="221.8575" y="227.6409">1</text><text fill="#000000" font-family="Verdana" font-size="7.8" lengthAdjust="spacing" textLength="44.4" x="180.4106" y="210.5474">dutyObject</text><text fill="#000000" font-family="Verdana" font-size="7.8" lengthAdjust="spacing" textLength="4.8" x="200.2106" y="220.027">1</text></g><!--link DutyObject to Vehicle--><g id="link_DutyObject_Vehicle"><path codeLine="53" d="M227.1,288.666 C227.1,288.666 227.1,308.952 227.1,308.952 " fill="none" id="DutyObject-Vehicle" style="stroke:#595959;stroke-width:0.6;"/><polygon fill="#595959" points="227.1,280.866,224.7,284.466,227.1,288.066,229.5,284.466,227.1,280.866" style="stroke:#595959;stroke-width:0.6;"/><polygon fill="#595959" points="227.1,316.752,229.5,311.352,227.1,313.752,224.7,311.352,227.1,316.752" style="stroke:#595959;stroke-width:0.6;"/><line style="stroke:#595959;stroke-width:0.6;" x1="227.1" x2="227.1" y1="313.752" y2="308.952"/><text fill="#000000" font-family="Verdana" font-size="7.8" lengthAdjust="spacing" textLength="4.8" x="221.9625" y="310.2606">1</text><text fill="#000000" font-family="Verdana" font-size="7.8" lengthAdjust="spacing" textLength="27.6" x="197.4731" y="293.5455">vehicle</text><text fill="#000000" font-family="Verdana" font-size="7.8" lengthAdjust="spacing" textLength="4.8" x="208.8731" y="303.0251">1</text></g><!--link Project to ShipProjectTypeEnum--><g id="link_Project_ShipProjectTypeEnum"><path codeLine="54" d="M147.9,505.326 C147.9,505.326 147.9,525.546 147.9,525.546 " fill="none" id="Project-ShipProjectTypeEnum" style="stroke:#595959;stroke-width:0.6;"/><polygon fill="#595959" points="147.9,497.526,145.5,501.126,147.9,504.726,150.3,501.126,147.9,497.526" style="stroke:#595959;stroke-width:0.6;"/><polygon fill="#595959" points="147.9,533.346,150.3,527.946,147.9,530.346,145.5,527.946,147.9,533.346" style="stroke:#595959;stroke-width:0.6;"/><line style="stroke:#595959;stroke-width:0.6;" x1="147.9" x2="147.9" y1="530.346" y2="525.546"/><text fill="#000000" font-family="Verdana" font-size="7.8" lengthAdjust="spacing" textLength="4.8" x="142.8525" y="526.8027">1</text><text fill="#000000" font-family="Verdana" font-size="7.8" lengthAdjust="spacing" textLength="48" x="97.5375" y="510.1208">projectType</text><text fill="#000000" font-family="Verdana" font-size="7.8" lengthAdjust="spacing" textLength="4.8" x="119.1375" y="519.6004">1</text></g><!--link Route to Duty--><g id="link_Route_Duty"><path codeLine="55" d="M227.1,102.642 C227.1,102.642 227.1,122.898 227.1,122.898 " fill="none" id="Route-Duty" style="stroke:#595959;stroke-width:0.6;"/><polygon fill="#595959" points="227.1,94.842,224.7,98.442,227.1,102.042,229.5,98.442,227.1,94.842" style="stroke:#595959;stroke-width:0.6;"/><polygon fill="#595959" points="227.1,130.698,229.5,125.298,227.1,127.698,224.7,125.298,227.1,130.698" style="stroke:#595959;stroke-width:0.6;"/><line style="stroke:#595959;stroke-width:0.6;" x1="227.1" x2="227.1" y1="127.698" y2="122.898"/><text fill="#000000" font-family="Verdana" font-size="7.8" lengthAdjust="spacing" textLength="4.8" x="221.9775" y="124.4364">1</text><text fill="#000000" font-family="Verdana" font-size="7.8" lengthAdjust="spacing" textLength="18" x="208.2984" y="107.4305">duty</text><text fill="#000000" font-family="Verdana" font-size="7.8" lengthAdjust="spacing" textLength="4.8" x="214.8984" y="116.9101">1</text></g><!--link Vehicle to Project--><g id="link_Vehicle_Project"><path codeLine="56" d="M190.5,391.872 C190.5,391.872 190.5,412.134 190.5,412.134 " fill="none" id="Vehicle-Project" style="stroke:#595959;stroke-width:0.6;"/><polygon fill="#595959" points="190.5,384.072,188.1,387.672,190.5,391.272,192.9,387.672,190.5,384.072" style="stroke:#595959;stroke-width:0.6;"/><polygon fill="#595959" points="190.5,419.934,192.9,414.534,190.5,416.934,188.1,414.534,190.5,419.934" style="stroke:#595959;stroke-width:0.6;"/><line style="stroke:#595959;stroke-width:0.6;" x1="190.5" x2="190.5" y1="416.934" y2="412.134"/><text fill="#000000" font-family="Verdana" font-size="7.8" lengthAdjust="spacing" textLength="4.8" x="190.5994" y="413.5294">1</text><text fill="#000000" font-family="Verdana" font-size="7.8" lengthAdjust="spacing" textLength="28.2" x="156.7547" y="396.6317">project</text><text fill="#000000" font-family="Verdana" font-size="7.8" lengthAdjust="spacing" textLength="4.8" x="168.4547" y="406.1113">1</text></g><!--link VehicleTth to Project--><g id="link_VehicleTth_Project"><path codeLine="57" d="M98.1,391.872 C98.1,391.872 98.1,412.134 98.1,412.134 " fill="none" id="VehicleTth-Project" style="stroke:#595959;stroke-width:0.6;"/><polygon fill="#595959" points="98.1,384.072,95.7,387.672,98.1,391.272,100.5,387.672,98.1,384.072" style="stroke:#595959;stroke-width:0.6;"/><polygon fill="#595959" points="98.1,419.934,100.5,414.534,98.1,416.934,95.7,414.534,98.1,419.934" style="stroke:#595959;stroke-width:0.6;"/><line style="stroke:#595959;stroke-width:0.6;" x1="98.1" x2="98.1" y1="416.934" y2="412.134"/><text fill="#000000" font-family="Verdana" font-size="7.8" lengthAdjust="spacing" textLength="4.8" x="86.9381" y="413.5294">1</text><text fill="#000000" font-family="Verdana" font-size="7.8" lengthAdjust="spacing" textLength="28.2" x="71.5734" y="396.6317">project</text><text fill="#000000" font-family="Verdana" font-size="7.8" lengthAdjust="spacing" textLength="4.8" x="83.2734" y="406.1113">1</text></g><!--SRC=[fLDDJyCm3BtdLvXn0tRWm849JG8628Iqgjsu049PQws1DAbI5maX_ZjPccvjwVWGxSLnOZ_xFNk7KimGSic5OgHp80qBJQGpI8J1c8HMh7WHAkU6Po25GdhB4RIXL3CMIruKC2df3TuPm10IQquNppPmvDoLxQv4CeBv_7hY3WjS2ZNXX2EurJ6NAtCcCdINg9A-guy6N9NNWxvYAc9ftzzLHXkk3WkCRiJOVb3P8htN-MATs2GH6Q6Mpg5urdQqUiYhq9dbmpvAHHvi71UgpDR8eIu9FQv4jQHqrPfFMH0tj8q9dQFXPD4lIob3B7HfOcm4Rs6gLgBIe4i7sjhwweMJ4rZTEKYjO3nsDU_3LJYT1oDmTX1ERoxEP_vqVdiQHTwEvcTFtNFRro6qfiUhLWjJ5TLMfi7xxbTL78KHcbSHutU3uu5cb7gibfnSgPBBm3xaImnz6e_GMvHLqgv3HvKFnjmwTBx1uG3sXlUxHyUh_y3js-Dm38FDmZme-wOns-kFzJct9lJBuBBLp3O_Lk_1hyfhpBZBs3Ssh9hlFpIyRhLB4-kh-AVYNBQ-hbX3yFzd-mG0]--></g></svg>